<svg version="1.1" id="Layer_1" xmlns="http://www.w3.org/2000/svg" xmlns:xlink="http://www.w3.org/1999/xlink" x="0px" y="0px"
	 width="100%" viewBox="0 0 1024 1024" enable-background="new 0 0 1024 1024" xml:space="preserve">
<path fill="#000000" opacity="1.000000" stroke="none" 
	d="
M219.665833,448.181366 
	C225.490372,446.004211 230.635361,445.888702 235.559128,449.753937 
	C255.213898,465.183258 274.032288,481.554504 291.948547,498.976715 
	C295.043396,501.986206 296.217316,505.351013 295.098694,509.342041 
	C294.019897,513.190979 290.673645,514.793518 287.145386,515.298584 
	C282.858459,515.912170 279.552063,513.166931 276.464935,510.712921 
	C271.516693,506.779510 266.869934,502.469269 262.005859,498.426483 
	C259.379700,496.243744 256.923462,493.721985 252.564270,492.384277 
	C256.102417,497.552307 260.503204,500.542114 264.244659,504.159698 
	C267.235382,507.051331 270.457855,509.704681 273.425018,512.619019 
	C276.865601,515.998352 277.344574,520.667175 274.799164,523.867126 
	C271.749207,527.701416 266.820465,528.903992 262.762360,526.135925 
	C257.961700,522.861389 253.513916,519.064087 248.960571,515.433899 
	C242.406464,510.208740 236.436676,504.232178 228.746750,500.398560 
	C235.646286,506.538239 242.545456,512.678345 249.445694,518.817200 
	C250.689240,519.923462 251.950455,521.010254 253.180695,522.131104 
	C256.438538,525.099243 257.438721,528.666504 254.903381,532.392395 
	C252.461670,535.980713 248.678741,536.723328 244.680832,535.353577 
	C239.675873,533.638794 235.984100,529.896973 232.036926,526.594666 
	C226.940033,522.330566 221.894516,518.005127 216.411438,514.110901 
	C218.879608,518.505249 223.068619,521.312866 226.527710,524.774841 
	C227.697098,525.945251 229.101471,526.879517 230.386887,527.935669 
	C232.895569,529.996948 235.505508,532.215210 234.106766,535.879944 
	C232.709656,539.540344 229.410721,540.948364 225.729401,541.144409 
	C224.125702,541.229736 222.310013,540.937317 220.888611,540.223206 
	C214.539383,537.033386 208.570236,533.002441 201.030075,532.635498 
	C201.279709,527.733887 203.863190,524.785217 205.828781,521.639099 
	C211.217438,513.014221 208.596024,505.694275 198.944275,503.006958 
	C197.532120,502.613770 196.630890,502.047729 196.166351,500.563110 
	C192.796982,489.794952 192.375717,489.544586 181.884506,491.310944 
	C176.512695,479.532135 175.835587,479.300598 162.564194,484.704010 
	C157.900208,476.273773 152.605133,474.298126 146.520996,478.796631 
	C145.476349,479.569000 144.613602,480.625977 143.790649,481.650879 
	C142.411285,483.368683 141.971802,487.062103 139.357788,486.252136 
	C135.316559,484.999939 131.452362,482.766296 128.292526,479.758698 
	C127.415634,478.924072 128.279099,477.528595 128.519684,476.409454 
	C132.366501,458.515472 139.155792,441.771790 148.157410,425.873199 
	C149.724670,423.105133 151.378067,422.046997 154.574188,423.542389 
	C159.784561,425.980164 165.043716,424.262207 170.210022,423.002899 
	C180.704239,420.444977 191.028687,417.176575 201.869827,416.140106 
	C207.879456,415.565552 213.662491,416.110260 220.248886,417.870300 
	C216.054688,421.133911 211.768768,421.882141 207.796585,423.100708 
	C202.990463,424.575134 199.725479,427.412109 197.336426,431.712769 
	C193.611130,438.418762 189.551849,444.808685 183.354080,449.731689 
	C178.563522,453.537018 179.879608,459.753204 185.753998,462.647308 
	C190.713196,465.090515 195.814285,464.566223 200.756836,462.521606 
	C204.473053,460.984314 207.784088,458.767853 210.658264,455.887848 
	C213.360168,453.180542 216.016846,450.397797 219.665833,448.181366 
z"/>
<path fill="#000000" opacity="1.000000" stroke="none" 
	d="
M298.143127,499.227356 
	C295.536743,498.981567 294.414246,497.185760 292.959564,495.858917 
	C284.716003,488.339966 276.463684,480.830536 268.233459,473.296967 
	C267.073578,472.235291 265.230225,471.619629 265.594116,468.609009 
	C271.981262,470.588562 278.441040,471.644867 285.054230,470.108185 
	C265.090729,471.150452 251.066711,459.519623 237.063629,447.864746 
	C230.447632,442.358154 220.010239,442.747131 213.913925,448.897583 
	C208.826462,454.030243 203.554214,458.802856 196.262146,460.611328 
	C194.456772,461.059052 192.627045,461.528351 190.843750,461.046082 
	C187.988342,460.273956 184.768356,459.721863 183.802841,456.265991 
	C182.908798,453.065857 185.370392,451.506439 187.371597,449.728241 
	C192.155594,445.477386 195.915619,440.373779 198.967468,434.803284 
	C201.778671,429.672058 205.845642,426.579987 211.453568,424.876404 
	C217.811981,422.944885 224.063187,420.577881 230.193237,418.001129 
	C235.876511,415.612213 241.319412,415.607727 247.195435,417.361023 
	C262.019440,421.784363 276.955200,425.833069 291.846497,430.030762 
	C292.327454,430.166321 292.852600,430.483215 293.288269,430.390808 
	C301.222198,428.707642 302.958008,434.551147 305.131866,439.996216 
	C311.345154,455.559418 314.430328,471.901154 317.272705,488.306641 
	C317.441315,489.280029 317.351929,490.326508 318.264526,491.019653 
	C326.313934,490.732727 327.280884,489.415619 326.022552,481.414856 
	C323.532013,465.579102 319.804688,450.103729 313.582672,435.266479 
	C311.867218,431.175751 310.061462,428.084320 304.921234,430.388092 
	C304.411835,430.616364 303.711578,430.418671 302.551331,430.418671 
	C304.391022,427.075592 307.530945,426.994965 309.979828,426.199463 
	C320.422607,422.807159 331.015656,419.876312 341.450745,416.461945 
	C345.522339,415.129791 347.064026,416.361786 348.125610,420.269531 
	C353.531250,440.167725 359.118408,460.009216 362.407745,480.416748 
	C363.023804,484.238922 362.416931,486.217438 358.272400,487.122131 
	C349.497253,489.037659 340.803497,491.341736 332.115326,493.634125 
	C327.260406,494.915070 322.113525,493.485199 317.361877,495.419434 
	C310.628357,490.125153 306.334839,497.095734 300.966644,498.672607 
	C300.171478,498.906189 299.347687,499.042236 298.143127,499.227356 
M339.963867,483.136597 
	C342.132416,482.045898 343.333679,480.390991 342.504272,477.934937 
	C341.928314,476.229492 340.524628,475.335388 338.685913,475.332184 
	C336.833344,475.328979 335.383484,476.258820 334.888916,477.962311 
	C333.795135,481.729767 336.129791,482.951538 339.963867,483.136597 
z"/>
<path fill="#000000" opacity="1.000000" stroke="none" 
	d="
M300.887756,364.062439 
	C315.091736,373.732178 327.180969,385.023590 337.114716,399.104706 
	C334.623993,399.735901 334.042755,398.248260 333.174713,397.387878 
	C309.261902,373.686462 280.686279,359.374817 247.130325,356.206055 
	C199.097183,351.670197 158.714462,367.166656 127.172363,404.189789 
	C125.707779,405.908875 124.364151,406.063232 122.400276,406.193329 
	C129.791718,409.703461 137.183167,413.213623 144.690582,416.778839 
	C136.779831,424.109863 133.327499,433.631500 129.202728,442.705627 
	C125.473747,450.908936 123.269356,459.652069 120.786316,468.292572 
	C119.529205,472.667114 118.194603,476.804352 125.180771,478.566010 
	C120.882942,480.974945 117.544266,482.786133 113.310051,481.289612 
	C101.071815,476.964172 88.851990,472.576935 76.524361,468.519531 
	C72.402992,467.163086 72.271027,464.481415 72.761948,461.154968 
	C77.150345,431.418671 89.264519,405.455231 110.735786,384.182495 
	C134.158386,360.976410 162.203842,346.367157 194.748322,341.321411 
	C232.725693,335.433350 268.245697,342.557526 300.887756,364.062439 
M108.892326,460.088989 
	C105.951424,459.207336 104.396889,460.824127 103.837425,463.331696 
	C103.371887,465.418243 104.990273,466.691986 106.685356,467.479889 
	C108.400101,468.276917 110.038368,467.713409 111.038574,466.181366 
	C112.596077,463.795654 111.956238,461.799072 108.892326,460.088989 
z"/>
<path fill="#000000" opacity="1.000000" stroke="none" 
	d="
M236.684967,594.645020 
	C258.189514,590.179932 277.236572,581.460510 293.726746,567.506592 
	C315.127930,549.396912 328.296631,526.416809 333.454651,498.915070 
	C334.051544,495.732483 335.350800,494.328461 338.264984,493.583405 
	C344.709167,491.935852 351.114716,490.132904 357.513519,488.314240 
	C361.174225,487.273773 362.362122,488.538483 361.983521,492.262054 
	C355.652130,554.530212 313.434540,602.944092 252.011093,615.670715 
	C195.135635,627.454895 147.280228,610.107605 108.812134,566.680908 
	C94.911301,550.988281 86.187271,532.272095 77.670502,513.435242 
	C77.285942,512.584778 76.654808,511.628174 77.604431,510.577698 
	C80.054878,511.544891 80.480751,514.072632 81.594948,515.995056 
	C105.055252,556.471558 138.797760,583.518433 184.720459,594.202576 
	C201.738464,598.161987 219.047714,597.906982 236.684967,594.645020 
z"/>
<path fill="#000000" opacity="1.000000" stroke="none" 
	d="
M502.121490,375.952209 
	C509.055420,401.735779 515.876099,427.117798 522.710083,452.496277 
	C522.879211,453.124329 523.196106,453.712616 523.535767,454.543823 
	C525.661072,452.578217 525.786804,449.976929 526.418335,447.694702 
	C532.807068,424.607574 539.180420,401.515320 545.343323,378.367340 
	C546.415833,374.339020 548.069519,372.592834 552.493958,372.662323 
	C556.839905,372.730560 559.076355,373.945099 560.251465,378.359222 
	C566.457581,401.671661 572.929504,424.913422 579.335815,448.172333 
	C579.905334,450.239990 580.665344,452.255157 581.438721,454.604034 
	C583.636963,452.294861 583.787292,449.535522 584.441467,447.089508 
	C590.500854,424.433350 596.574524,401.778748 602.288330,379.034332 
	C603.486694,374.264130 605.419495,371.981964 610.406372,372.770935 
	C611.708618,372.976959 613.073914,372.907532 614.400024,372.816162 
	C618.757935,372.515900 619.396729,374.394958 618.266479,378.294800 
	C609.233459,409.461609 600.255371,440.645264 591.520630,471.896454 
	C590.366699,476.025055 588.720520,478.061707 584.393188,477.390778 
	C583.904968,477.315094 583.394897,477.380371 582.894958,477.380249 
	C575.042969,477.378113 574.931580,477.409119 572.827515,469.837708 
	C566.723938,447.873810 560.731812,425.878906 554.644165,403.910553 
	C554.223022,402.390656 554.214722,400.621948 552.519653,399.188690 
	C549.177368,406.835693 547.656738,414.823578 545.426880,422.562195 
	C540.635742,439.189514 536.062378,455.882782 531.687744,472.624298 
	C530.748474,476.218903 529.236145,477.528687 525.569031,477.445709 
	C513.398010,477.170380 515.918396,478.601624 512.852539,468.059448 
	C504.209045,438.337341 495.803802,408.545898 487.323212,378.776489 
	C485.692444,373.051941 485.887329,372.574738 491.771820,372.893982 
	C495.256531,373.083008 499.641327,370.767395 502.121490,375.952209 
z"/>
<path fill="#000000" opacity="1.000000" stroke="none" 
	d="
M904.231689,445.963135 
	C889.839661,485.417236 839.943604,488.084381 817.798645,463.640961 
	C794.964783,438.437134 799.589417,388.251923 835.917297,375.037537 
	C869.367371,362.869965 905.376770,381.138367 907.325806,421.978119 
	C907.709351,430.015106 907.147583,437.944794 904.231689,445.963135 
M818.397339,426.343872 
	C818.583618,430.682556 819.168701,434.988098 820.426880,439.125366 
	C824.534729,452.632355 832.601624,462.454895 846.926025,465.600494 
	C861.622314,468.827789 874.372864,465.233459 884.076233,453.261993 
	C892.139648,443.313843 893.856934,431.595551 892.606201,419.293640 
	C889.414185,387.897278 860.886230,377.428070 839.296814,387.831665 
	C823.870239,395.265533 818.976257,409.351562 818.397339,426.343872 
z"/>
<path fill="#000000" opacity="1.000000" stroke="none" 
	d="
M1010.070984,466.969238 
	C1009.918762,480.142334 1011.168762,478.407532 999.063416,478.266724 
	C986.764343,478.123627 974.415833,479.419098 962.165771,477.334473 
	C938.067322,473.233612 921.272278,453.273499 920.588867,428.812347 
	C920.022461,408.536133 926.832520,392.292694 944.523621,381.504761 
	C952.944702,376.369690 962.346924,374.073730 972.132080,373.832947 
	C983.122375,373.562469 994.128113,373.924194 1005.118713,373.660980 
	C1010.313416,373.536591 1010.081177,376.677185 1010.115173,380.181305 
	C1010.148743,383.639648 1009.989136,386.319794 1005.237122,386.353333 
	C993.091125,386.439087 980.940857,385.975952 968.796265,387.123016 
	C951.482361,388.758362 937.569458,401.460480 935.515686,419.069427 
	C933.588196,435.595856 937.265198,450.318390 952.333679,460.049225 
	C958.057251,463.745331 964.540894,465.360748 971.270203,465.633759 
	C977.591431,465.890259 983.945129,465.442444 990.257507,465.792297 
	C994.867493,466.047821 995.874207,464.124481 995.790649,459.937531 
	C995.564392,448.612091 995.995483,437.269531 995.607178,425.952942 
	C995.403870,420.028290 998.741455,420.111267 1002.868225,420.062897 
	C1007.100037,420.013367 1010.271423,420.186523 1010.137146,425.989075 
	C1009.824890,439.477509 1010.057495,452.978516 1010.070984,466.969238 
z"/>
<path fill="#000000" opacity="1.000000" stroke="none" 
	d="
M441.732300,466.641449 
	C447.753265,466.800751 452.739075,465.029510 457.073944,461.714020 
	C465.956421,454.920319 465.134399,442.914764 455.471405,437.275574 
	C448.330139,433.108063 440.296265,431.446594 432.442444,429.300476 
	C426.813110,427.762268 421.249512,426.028870 416.076324,423.276733 
	C399.433624,414.422913 397.098511,392.182678 411.687103,380.195587 
	C417.595490,375.340820 424.329956,372.486664 432.315186,372.670624 
	C444.471008,372.950653 456.638031,372.721863 468.800110,372.765533 
	C474.340790,372.785431 474.157471,372.986786 474.420868,380.538239 
	C474.583069,385.188202 472.386353,385.552368 468.666168,385.495819 
	C456.506653,385.310913 444.341522,385.514893 432.181213,385.359711 
	C427.246918,385.296722 423.400360,387.450500 420.285675,390.775726 
	C414.491638,396.961334 416.431274,406.362915 424.240021,410.537964 
	C432.105133,414.743225 440.936768,416.087189 449.347107,418.676270 
	C453.640961,419.998077 457.950043,421.248993 461.926880,423.421448 
	C474.651550,430.372833 478.987946,438.983612 477.284698,454.010193 
	C476.085205,464.592560 467.000549,474.125519 455.185333,477.248596 
	C450.172089,478.573761 445.126831,479.301239 439.900330,479.208282 
	C429.907074,479.030548 419.902802,478.937988 409.914307,479.214508 
	C403.060028,479.404297 405.092133,474.585236 404.597260,470.977600 
	C404.003174,466.646820 406.634827,466.556213 409.778442,466.583771 
	C420.273956,466.675842 430.770630,466.633759 441.732300,466.641449 
z"/>
<path fill="#000000" opacity="1.000000" stroke="none" 
	d="
M644.553711,438.441833 
	C640.257874,449.689545 635.868347,460.493164 632.039124,471.491852 
	C630.462769,476.019592 628.184448,478.113983 623.381165,477.412842 
	C620.945251,477.057251 618.402100,477.748199 615.944153,476.853821 
	C614.748962,474.714905 616.135010,472.976471 616.834412,471.227081 
	C629.070129,440.622101 641.455505,410.076263 653.508545,379.399780 
	C655.442566,374.477631 657.805725,372.332794 663.301758,372.684113 
	C674.149048,373.377441 672.342285,370.898865 676.773682,381.915710 
	C688.763733,411.723450 700.802246,441.511688 712.790466,471.320160 
	C713.454956,472.972473 714.618652,474.554077 713.978760,476.827515 
	C710.037048,477.969452 705.900024,477.352051 701.820984,477.216919 
	C699.043762,477.124939 698.673767,474.500183 697.934631,472.577301 
	C689.813232,451.447235 681.776489,430.284576 673.683655,409.143463 
	C670.977356,402.073853 668.176514,395.040497 665.418884,387.990540 
	C664.952026,387.989471 664.485107,387.988373 664.018188,387.987274 
	C657.574097,404.683655 651.129944,421.380005 644.553711,438.441833 
z"/>
<path fill="#000000" opacity="1.000000" stroke="none" 
	d="
M747.646729,454.000214 
	C749.515015,440.087097 745.675781,428.777954 737.138184,418.051910 
	C727.616943,406.090057 719.626465,392.906860 711.035706,380.210571 
	C709.757690,378.321869 708.040588,376.618805 707.681702,374.207001 
	C714.735291,370.614075 722.406311,372.439789 726.531860,378.626617 
	C734.667358,390.826843 742.800781,403.028473 750.962341,415.211182 
	C751.865540,416.559296 752.478821,418.207581 754.313293,418.931946 
	C756.995544,417.371307 758.229797,414.532440 759.866272,412.115967 
	C767.060059,401.493530 774.427734,390.968048 781.100220,380.022095 
	C784.463684,374.504456 788.341675,371.705170 794.805481,372.800598 
	C796.727417,373.126282 798.796082,372.431030 800.830933,373.664978 
	C801.333374,376.442352 799.151306,378.155396 797.847717,380.090393 
	C786.583252,396.811401 775.255310,413.490112 763.840637,430.108887 
	C762.053711,432.710480 761.251648,435.322998 761.286499,438.473816 
	C761.410156,449.638672 761.188171,460.808502 761.401489,471.970612 
	C761.479248,476.036194 760.249329,477.918274 756.036133,477.388855 
	C754.723389,477.223938 753.365845,477.272369 752.040955,477.376801 
	C748.823425,477.630432 747.562012,476.208893 747.628784,472.998657 
	C747.757019,466.835022 747.653748,460.666565 747.646729,454.000214 
z"/>
<path fill="#000000" opacity="1.000000" stroke="none" 
	d="
M772.297302,566.369385 
	C773.703491,561.172058 775.034424,556.365479 776.237061,551.526917 
	C776.925110,548.758545 777.757690,546.637695 781.360168,546.656433 
	C784.860901,546.674683 785.820557,548.492920 786.522827,551.417358 
	C788.264404,558.670044 790.272644,565.858765 792.534241,574.441162 
	C794.425415,566.891541 796.004517,560.678650 797.535522,554.453979 
	C799.631714,545.931091 800.826050,545.228882 809.919495,547.625427 
	C809.237732,553.362671 807.104980,558.771973 805.578369,564.317810 
	C803.637817,571.367859 801.406799,578.342224 799.632751,585.432251 
	C798.530273,589.838318 795.351257,589.147034 792.215515,589.356079 
	C788.797241,589.584045 787.550659,587.820557 786.853210,584.840454 
	C785.303406,578.218079 783.554016,571.642456 781.627930,564.027344 
	C778.834351,570.688721 778.000793,576.848572 776.355347,582.757507 
	C775.412415,586.143860 775.299255,589.420288 770.180176,589.487366 
	C765.331909,589.550903 763.622314,587.712585 762.505188,583.259460 
	C759.919250,572.950867 756.660645,562.812622 753.825928,552.563477 
	C753.298035,550.654602 751.138855,548.027161 754.914246,546.866455 
	C759.217896,545.543457 763.242432,546.910889 764.065247,550.070679 
	C765.906799,557.142151 767.584045,564.256348 769.342590,571.349548 
	C769.450195,571.783447 769.682739,572.186401 770.197693,573.418701 
	C770.997009,570.712463 771.582642,568.729614 772.297302,566.369385 
z"/>
<path fill="#000000" opacity="1.000000" stroke="none" 
	d="
M61.980888,534.720825 
	C81.365959,534.870605 92.462296,542.146606 98.847534,558.839417 
	C94.651299,559.186890 91.557755,555.912231 86.662735,555.763245 
	C92.333054,558.602905 97.188370,561.034363 102.443398,563.666016 
	C69.993393,577.308350 47.002438,554.865234 43.312866,532.266541 
	C49.366238,534.339844 55.395802,534.929810 61.980888,534.720825 
z"/>
<path fill="#000000" opacity="1.000000" stroke="none" 
	d="
M993.336060,550.210693 
	C993.370056,561.501465 993.445251,572.312927 993.344055,583.122864 
	C993.324341,585.232910 994.506714,588.416077 991.336792,589.018494 
	C988.062012,589.640930 984.489075,590.258972 981.967102,586.468201 
	C977.640320,579.964478 972.971008,573.688232 968.422424,567.332947 
	C967.854797,566.539917 967.146790,565.847290 965.310974,565.210449 
	C965.310974,571.525085 965.144531,577.845703 965.372437,584.152100 
	C965.512390,588.026123 964.161438,589.421082 960.218994,589.406372 
	C956.329163,589.391907 954.897156,588.066101 954.965454,584.172913 
	C955.146240,573.863770 954.992065,563.549133 955.110962,553.238281 
	C955.137512,550.935059 954.110718,547.620239 957.534241,547.014343 
	C960.821228,546.432678 964.522949,545.640503 967.070068,549.270508 
	C971.368347,555.395996 975.766907,561.451233 980.140015,567.523926 
	C980.903809,568.584595 981.749756,569.586121 983.672485,570.505493 
	C983.672485,564.178284 983.632812,557.850647 983.696655,551.524109 
	C983.715820,549.627014 983.226624,546.978088 986.133606,546.956665 
	C988.724487,546.937683 992.461182,544.924744 993.336060,550.210693 
z"/>
<path fill="#000000" opacity="1.000000" stroke="none" 
	d="
M524.565918,548.054443 
	C526.168152,549.036133 527.579956,549.692932 528.630737,550.719360 
	C530.266418,552.317200 533.436340,553.465759 531.705627,556.593018 
	C530.234619,559.250977 525.220886,559.852600 522.695984,558.037659 
	C517.524170,554.320007 511.913818,554.348816 507.584961,558.115295 
	C502.918579,562.175415 501.740540,569.568909 504.890259,575.027222 
	C507.692627,579.883606 513.602417,582.167725 519.206055,580.393677 
	C521.235474,579.751221 523.775574,579.004211 523.438293,576.252625 
	C523.077271,573.307922 520.369202,574.327820 518.567444,574.276001 
	C515.425415,574.185791 512.622437,574.427063 512.616638,569.770264 
	C512.610901,565.205261 515.380493,565.158936 518.521240,565.105347 
	C518.854553,565.099670 519.187927,565.087280 519.521118,565.091858 
	C536.252808,565.322021 532.973816,562.602173 533.374329,579.562866 
	C533.426636,581.778687 532.448242,583.322205 530.847961,584.715576 
	C522.952332,591.590271 509.838318,592.001953 501.108551,585.597961 
	C493.258545,579.839355 490.524109,568.078857 494.813599,558.524231 
	C499.506775,548.070435 511.594452,543.700378 524.565918,548.054443 
z"/>
<path fill="#000000" opacity="1.000000" stroke="none" 
	d="
M445.055054,574.243774 
	C444.502869,570.020081 444.246002,566.165100 444.987793,562.413147 
	C446.963257,552.421204 457.209625,545.168884 467.619415,546.173340 
	C480.114838,547.378967 487.959045,554.964233 488.346588,566.216125 
	C488.804993,579.525635 482.947571,587.222900 470.454987,589.727417 
	C459.262909,591.971313 449.493744,586.147705 445.055054,574.243774 
M454.736633,565.277039 
	C453.795441,573.573914 457.706787,579.849426 464.373199,580.738342 
	C471.481201,581.686157 476.755981,577.751282 478.327332,570.328857 
	C479.652893,564.067505 475.458008,557.146484 469.383484,555.572693 
	C463.034760,553.927856 457.577057,557.331177 454.736633,565.277039 
z"/>
<path fill="#000000" opacity="1.000000" stroke="none" 
	d="
M621.779602,546.767456 
	C625.668457,547.360718 624.952148,550.097107 624.983704,552.291138 
	C625.153015,564.080078 623.571655,562.799011 635.785522,562.872314 
	C642.872925,562.914795 642.874084,562.869873 642.926331,555.682678 
	C642.934814,554.516846 643.020386,553.342834 642.916016,552.186523 
	C642.552307,548.157166 644.155396,546.572632 648.365784,546.611877 
	C652.497498,546.650391 653.400940,548.451355 653.349670,552.104858 
	C653.200073,562.762146 653.182251,573.424500 653.348022,584.081238 
	C653.406921,587.865112 652.307129,589.485779 648.241516,589.410156 
	C644.480835,589.340088 642.898010,588.271362 642.824219,584.278198 
	C642.593872,571.814514 642.465637,571.943237 630.217163,572.089417 
	C626.362244,572.135498 624.648254,573.394775 624.991760,577.318298 
	C625.165405,579.301636 625.048340,581.313232 625.015564,583.311340 
	C624.921814,589.021912 624.154541,589.618652 618.627380,589.348022 
	C615.895386,589.214294 614.719238,588.118713 614.727600,585.412109 
	C614.763306,573.920227 614.820068,562.427368 614.703064,550.936523 
	C614.649475,545.677551 618.345276,546.910950 621.779602,546.767456 
z"/>
<path fill="#000000" opacity="1.000000" stroke="none" 
	d="
M698.671631,560.010620 
	C698.678833,546.686035 698.678894,546.675354 711.625793,546.719421 
	C714.622314,546.729614 717.658569,546.552612 720.606689,546.963318 
	C727.227600,547.885742 731.107239,551.458679 732.483093,557.394714 
	C733.980103,563.853210 732.208984,568.244141 726.453125,572.410950 
	C725.932983,572.787476 725.493286,573.275208 724.934814,573.785706 
	C726.726318,579.037170 731.074951,582.937439 732.316772,588.355347 
	C724.687195,590.689209 722.554993,589.929504 719.144348,583.847839 
	C717.759338,581.378174 716.348755,578.922668 714.981018,576.443604 
	C713.923950,574.527832 712.269409,574.078674 710.305176,574.557129 
	C708.402466,575.020630 708.398132,576.629089 708.369934,578.151184 
	C708.335938,579.983582 708.249573,581.821289 708.344055,583.648499 
	C708.518188,587.016357 708.091736,589.330383 703.663879,589.409668 
	C699.003906,589.493042 698.573669,587.135437 698.639099,583.501953 
	C698.777161,575.839844 698.675293,568.173462 698.671631,560.010620 
M708.380127,558.920410 
	C708.718872,561.084534 707.107849,564.375977 709.715698,565.171387 
	C713.388733,566.291748 717.581421,566.779968 721.053284,563.992432 
	C722.793945,562.594910 723.143188,560.613159 722.203918,558.611877 
	C720.271912,554.495239 711.091858,554.186157 708.380127,558.920410 
z"/>
<path fill="#000000" opacity="1.000000" stroke="none" 
	d="
M945.924805,574.155518 
	C947.897278,579.094849 950.007507,583.588135 951.036194,588.856689 
	C945.881958,589.254761 940.787964,591.244995 938.792297,584.408447 
	C938.365906,582.948059 937.175903,582.345764 935.711121,582.338562 
	C931.546814,582.318054 927.382385,582.323853 923.218018,582.322083 
	C921.756714,582.321472 920.543030,582.810730 920.132690,584.326233 
	C918.257812,591.250793 913.132874,589.279663 908.596436,588.897888 
	C907.502686,586.901306 908.553223,585.390320 909.119324,583.912109 
	C913.287231,573.028381 917.693665,562.232544 921.662537,551.277771 
	C923.094910,547.324158 925.494080,546.570312 929.241516,546.623962 
	C933.041992,546.678345 935.876526,547.058533 937.317993,551.376282 
	C939.845764,558.948059 942.920654,566.337280 945.924805,574.155518 
M927.286926,563.013672 
	C926.385498,566.273315 924.258301,569.237488 924.662415,572.806763 
	C927.083069,574.070190 929.448914,573.543152 931.735229,573.573120 
	C933.430420,573.595276 935.032532,572.721558 934.379272,570.890564 
	C932.980591,566.970642 932.435974,562.622070 929.284668,558.897278 
	C928.552124,560.339905 928.039185,561.349915 927.286926,563.013672 
z"/>
<path fill="#000000" opacity="1.000000" stroke="none" 
	d="
M691.747192,586.733887 
	C691.012390,589.613647 688.991821,589.288513 687.204590,589.295837 
	C680.044006,589.325134 672.880737,589.195129 665.723633,589.354187 
	C662.252502,589.431274 660.985474,588.027039 661.018494,584.641235 
	C661.125916,573.651489 661.104614,562.659973 661.060608,551.669434 
	C661.046753,548.205627 662.283997,546.539551 666.069031,546.660339 
	C673.056030,546.883179 680.057800,546.831909 687.048401,546.671753 
	C690.418213,546.594604 691.934753,547.821472 691.950317,551.257446 
	C691.965576,554.633667 690.265137,555.514893 687.241333,555.400452 
	C683.416748,555.255737 679.578674,555.476135 675.753418,555.340759 
	C672.582703,555.228516 671.278442,556.457825 671.260681,559.718445 
	C671.243042,562.934753 672.731934,563.745178 675.563354,563.599060 
	C679.384644,563.401794 683.215637,563.398865 687.040588,563.260925 
	C689.852356,563.159485 691.399841,564.132080 691.335449,567.270813 
	C691.278381,570.053955 691.030884,572.297180 687.436401,572.228088 
	C683.774536,572.157715 680.108948,572.290039 676.446716,572.228821 
	C673.486389,572.179443 671.312500,572.535889 671.229492,576.430115 
	C671.146423,580.325439 673.156616,580.804810 676.220703,580.691406 
	C679.546814,580.568237 682.895874,580.854797 686.207581,580.603394 
	C690.523376,580.275879 692.517761,581.876221 691.747192,586.733887 
z"/>
<path fill="#000000" opacity="1.000000" stroke="none" 
	d="
M821.229858,546.713440 
	C827.698853,546.712097 833.699951,546.789490 839.697754,546.680054 
	C842.884338,546.621948 845.219177,546.910889 845.120544,551.114258 
	C845.022034,555.312561 842.553162,555.473572 839.462463,555.395630 
	C835.798401,555.303101 832.129700,555.414734 828.463684,555.374695 
	C825.923218,555.346985 824.374634,556.131958 824.306335,559.055054 
	C824.241760,561.818787 825.355042,562.967468 828.068298,563.113281 
	C831.562012,563.301025 835.027771,563.538208 838.542480,563.251465 
	C841.355713,563.021912 844.239502,562.796875 844.390137,567.248962 
	C844.531250,571.416931 842.699463,572.463196 839.009216,572.284302 
	C835.352112,572.107056 831.675659,572.364807 828.012817,572.258240 
	C824.686829,572.161438 824.301147,574.099243 824.280090,576.767273 
	C824.258606,579.493286 825.231567,580.760376 828.064758,580.690918 
	C832.395203,580.584717 836.732056,580.748657 841.062561,580.644897 
	C844.207336,580.569580 845.107727,582.183594 845.001770,585.009033 
	C844.899719,587.729309 844.083862,589.387451 840.916931,589.339233 
	C833.419128,589.225037 825.917725,589.262573 818.418945,589.347412 
	C815.729736,589.377808 814.548706,588.505005 814.579529,585.585083 
	C814.702881,573.920410 814.761353,562.251038 814.552673,550.588623 
	C814.458130,545.301697 818.132202,547.085144 821.229858,546.713440 
z"/>
<path fill="#000000" opacity="1.000000" stroke="none" 
	d="
M565.799072,572.230591 
	C561.494568,572.250977 557.663330,572.326782 553.834595,572.257935 
	C550.827454,572.203857 550.298035,573.937073 550.301758,576.446777 
	C550.305420,578.909851 550.673218,580.718750 553.762390,580.653381 
	C558.089905,580.561829 562.422668,580.723877 566.750366,580.635803 
	C569.572388,580.578491 571.141418,581.478760 571.096497,584.606689 
	C571.054871,587.504761 570.422302,589.397827 566.933899,589.336853 
	C559.608643,589.208862 552.278992,589.251160 544.952271,589.328613 
	C542.130188,589.358398 540.634094,588.473267 540.657837,585.341125 
	C540.746460,573.684448 540.715942,562.026489 540.664490,550.369324 
	C540.653320,547.838867 541.742065,546.733826 544.247009,546.741821 
	C551.907288,546.766296 559.568481,546.784973 567.227905,546.691406 
	C570.452698,546.652039 571.070801,548.482788 571.118713,551.167114 
	C571.170898,554.087097 570.016785,555.459656 566.993286,555.378906 
	C562.999573,555.272339 559.000244,555.396240 555.003662,555.370911 
	C552.469727,555.354919 550.445435,555.591980 550.299133,558.986816 
	C550.149536,562.458679 552.057007,563.386597 554.861511,563.450073 
	C558.353149,563.529053 561.849182,563.433167 565.343018,563.391052 
	C567.686951,563.362793 570.242188,562.916687 570.301697,566.531738 
	C570.349609,569.441772 570.703796,572.508850 565.799072,572.230591 
z"/>
<path fill="#000000" opacity="1.000000" stroke="none" 
	d="
M883.817993,589.561279 
	C874.238464,587.061707 867.982178,580.554138 866.811401,572.201355 
	C865.416565,562.249023 869.336426,553.547363 877.217407,549.101685 
	C885.237427,544.577576 895.496094,545.098511 902.073242,550.731445 
	C904.080444,552.450439 908.189331,554.484436 905.318787,557.687012 
	C903.176392,560.077271 899.770447,562.119324 895.906677,558.183289 
	C891.425171,553.617859 884.487488,554.422363 880.309021,559.016907 
	C875.909729,563.853943 875.913940,572.733093 880.317688,577.363220 
	C884.473694,581.732971 891.643188,582.326660 896.006287,577.920349 
	C898.880737,575.017456 901.086182,575.909790 903.918762,577.278748 
	C906.915222,578.726746 906.857239,580.493530 904.911987,582.736694 
	C899.377930,589.118164 892.394775,591.152771 883.817993,589.561279 
z"/>
<path fill="#000000" opacity="1.000000" stroke="none" 
	d="
M605.734497,555.879700 
	C597.322388,555.973083 597.318298,555.973083 597.309570,563.795776 
	C597.302002,570.616699 597.129761,577.443848 597.370239,584.256226 
	C597.511047,588.245239 595.947998,589.387512 592.123291,589.408081 
	C588.134399,589.429504 586.843323,587.858521 586.921570,584.084412 
	C587.073242,576.767578 586.725708,569.435059 587.042480,562.128906 
	C587.252197,557.291443 585.454773,555.446655 580.708740,555.880127 
	C577.805054,556.145325 574.922974,556.093384 574.847595,551.803650 
	C574.786438,548.324890 575.838440,546.580566 579.672729,546.662964 
	C587.987122,546.841675 596.308228,546.686035 604.625977,546.744507 
	C606.525635,546.757812 609.063477,546.297607 609.152649,549.264709 
	C609.229126,551.812012 610.705139,555.270813 605.734497,555.879700 
z"/>
<path fill="#000000" opacity="1.000000" stroke="none" 
	d="
M423.004547,546.710144 
	C428.335297,546.716614 433.169708,546.825134 437.997742,546.696167 
	C441.324799,546.607361 442.306000,548.179321 442.299164,551.269653 
	C442.292267,554.388123 441.099731,555.738770 437.936157,555.966553 
	C430.223297,556.521851 430.234131,556.624634 430.239563,564.618164 
	C430.244110,571.282593 430.098450,577.951172 430.292542,584.609924 
	C430.405029,588.469116 428.639893,589.414978 425.145233,589.383911 
	C421.761017,589.353821 419.786133,588.647705 419.894196,584.694336 
	C420.085297,577.701904 419.948090,570.700500 419.951141,563.702881 
	C419.954498,555.985168 419.959076,555.695801 412.351807,555.612610 
	C408.227081,555.567505 407.655304,553.678711 407.831207,550.375916 
	C407.962524,547.910217 409.001953,546.710144 411.509644,546.733887 
	C415.174500,546.768677 418.840179,546.722534 423.004547,546.710144 
z"/>
<path fill="#000000" opacity="1.000000" stroke="none" 
	d="
M194.502289,501.073364 
	C194.736603,504.438477 192.493057,506.214050 191.025955,508.360107 
	C188.222870,512.460510 185.035172,516.285950 182.807159,520.790100 
	C180.623611,525.204407 177.475143,526.383789 173.507202,524.640991 
	C169.217880,522.757019 166.503876,517.447754 168.433624,513.609924 
	C171.813919,506.887268 176.707397,501.138000 182.274918,496.199860 
	C186.300003,492.629761 191.966385,495.054901 194.502289,501.073364 
z"/>
<path fill="#000000" opacity="1.000000" stroke="none" 
	d="
M173.969299,500.937378 
	C171.848328,504.148651 169.889221,507.041046 168.073318,510.020721 
	C165.435303,514.349365 162.579758,515.365540 158.238556,513.361694 
	C154.286346,511.537445 151.881180,506.788727 153.627457,503.034180 
	C156.605103,496.632202 160.891647,491.038239 166.659119,486.925507 
	C170.070557,484.492859 173.983063,484.661835 177.121017,487.859467 
	C180.342575,491.142212 179.575150,494.396179 176.631516,497.498901 
	C175.721130,498.458527 175.001907,499.599518 173.969299,500.937378 
z"/>
<path fill="#000000" opacity="1.000000" stroke="none" 
	d="
M185.035599,520.498779 
	C187.807251,516.908325 190.292557,513.584351 192.942917,510.397766 
	C195.799164,506.963684 199.411758,506.134949 203.065735,508.805115 
	C206.578568,511.372192 207.319000,515.143860 205.337479,519.001343 
	C203.143082,523.273315 200.627838,527.388062 198.109634,531.483521 
	C196.387741,534.283936 193.573639,534.788330 190.656647,534.035278 
	C187.079834,533.111877 184.282318,531.118469 183.763779,527.094788 
	C183.484985,524.931580 183.649048,522.776428 185.035599,520.498779 
z"/>
<path fill="#000000" opacity="1.000000" stroke="none" 
	d="
M882.254761,509.168579 
	C883.632263,505.382019 884.865417,501.937347 886.116943,498.499359 
	C886.862488,496.451172 888.066467,494.904449 890.520081,495.386597 
	C893.071045,495.887787 892.603088,497.946014 892.573303,499.766052 
	C892.483459,505.256012 892.527771,510.750641 892.301453,516.234436 
	C892.228577,518.001038 893.422913,521.058838 890.630798,521.173035 
	C887.645752,521.295166 888.830383,518.195129 888.745667,516.450989 
	C888.563049,512.690125 888.689575,508.914185 888.040161,505.010132 
	C886.533752,508.993561 885.081238,512.998535 883.497864,516.951111 
	C882.732666,518.861206 882.552246,521.552856 879.667786,521.508484 
	C877.016846,521.467712 876.988037,518.904236 876.270874,517.158081 
	C874.842163,513.679321 873.542603,510.147491 871.180359,506.727325 
	C871.180359,510.288910 871.237366,513.851807 871.154236,517.411438 
	C871.117493,518.984131 871.507751,521.163269 869.124695,521.280579 
	C866.684265,521.400879 866.883057,519.251892 866.870117,517.644043 
	C866.821716,511.652313 866.837158,505.659729 866.879578,499.667786 
	C866.892822,497.801666 867.000854,495.928131 869.465698,495.500488 
	C872.048523,495.052338 872.987732,496.611084 873.716248,498.679871 
	C875.511658,503.778717 877.394165,508.846924 879.299622,514.086731 
	C881.508179,512.803467 881.438049,510.953339 882.254761,509.168579 
z"/>
<path fill="#000000" opacity="1.000000" stroke="none" 
	d="
M140.092346,490.720398 
	C141.790115,486.560944 144.114517,483.377228 147.648941,481.243347 
	C151.479889,478.930420 155.802505,479.550781 158.499161,482.644745 
	C161.423904,486.000397 160.200287,488.970428 157.814850,491.988739 
	C156.382446,493.801147 154.957779,495.715027 154.022263,497.803925 
	C152.350494,501.536835 149.804001,503.333801 145.796310,502.127136 
	C141.667694,500.884064 139.577118,497.929474 139.655457,493.564056 
	C139.670212,492.741699 139.848602,491.922241 140.092346,490.720398 
z"/>
<path fill="#000000" opacity="1.000000" stroke="none" 
	d="
M541.326660,494.966187 
	C545.116211,494.909943 548.399597,495.307861 550.956421,497.828278 
	C551.924744,498.782867 552.697144,500.016174 551.563171,501.331879 
	C550.560730,502.495056 549.522156,501.887878 548.511230,501.142242 
	C544.886108,498.468658 541.088318,498.043121 537.658569,501.207184 
	C534.639160,503.992584 534.398804,511.900146 536.988647,515.245117 
	C539.534668,518.533447 542.932190,518.581177 546.427856,517.158569 
	C547.890442,516.563416 548.566162,515.103210 548.574646,513.482666 
	C548.585388,511.424225 547.061951,511.208466 545.518127,510.979645 
	C544.218262,510.786926 542.837463,510.679474 541.908997,508.792328 
	C544.308533,505.672028 547.716492,506.981140 550.700806,507.291412 
	C553.400146,507.572052 553.187988,509.977722 553.222229,511.967499 
	C553.253723,513.794556 553.189758,515.622986 553.197388,517.450745 
	C553.210022,520.465393 552.572937,522.540771 548.824219,520.925903 
	C548.187561,520.651611 547.233337,520.984314 546.460510,521.176331 
	C538.478394,523.159485 533.872314,520.900085 531.650146,513.877686 
	C529.112061,505.856934 532.200073,498.160187 539.006775,495.574982 
	C539.625488,495.339996 540.282104,495.204834 541.326660,494.966187 
z"/>
<path fill="#000000" opacity="1.000000" stroke="none" 
	d="
M983.482910,495.357239 
	C987.075378,494.725555 990.204102,495.362823 993.302917,495.792755 
	C999.041626,496.588928 1002.180664,500.579102 1002.799927,507.403687 
	C1003.372986,513.719299 1000.587708,519.108276 995.577576,520.804871 
	C991.935913,522.038086 988.102173,522.216553 984.270630,521.877869 
	C982.435913,521.715637 980.976990,520.894714 980.964050,518.864563 
	C980.919617,511.905579 980.959900,504.945618 981.034424,497.986694 
	C981.047852,496.736450 981.791016,495.826050 983.482910,495.357239 
M985.346008,514.941406 
	C985.386963,516.724976 986.259277,517.740845 988.078186,517.780640 
	C992.018738,517.867065 995.769043,517.639648 997.581116,513.182312 
	C999.415283,508.670624 998.521790,503.290833 995.264465,500.877289 
	C992.665344,498.951508 989.548218,498.626862 986.748535,499.762299 
	C984.255554,500.773346 985.488098,503.572632 985.368286,505.597748 
	C985.202026,508.407837 985.320923,511.234863 985.346008,514.941406 
z"/>
<path fill="#000000" opacity="1.000000" stroke="none" 
	d="
M438.743896,497.754639 
	C441.411774,493.479858 443.244629,496.097412 444.759552,498.265137 
	C447.800323,502.616364 450.606018,507.131866 453.915436,512.202698 
	C455.325745,507.950775 454.384644,504.226776 454.755280,500.626221 
	C454.939728,498.834381 453.799255,495.875671 456.726257,495.813507 
	C460.078094,495.742310 458.966675,498.931641 459.018890,500.831055 
	C459.165314,506.157166 459.095245,511.491882 458.987946,516.820740 
	C458.953369,518.538696 459.520355,520.776001 457.099640,521.435608 
	C454.846344,522.049561 453.876343,520.250244 452.884674,518.681274 
	C449.793213,513.789978 446.695801,508.902405 443.600677,504.013397 
	C443.173370,504.096466 442.746094,504.179504 442.318787,504.262543 
	C442.318787,508.659668 442.388123,513.058472 442.280365,517.452942 
	C442.243774,518.944885 443.002533,521.285156 440.503082,521.389282 
	C437.852509,521.499695 438.639526,519.193115 438.637512,517.665710 
	C438.628845,511.168884 438.677307,504.671967 438.743896,497.754639 
z"/>
<path fill="#000000" opacity="1.000000" stroke="none" 
	d="
M505.922485,514.605713 
	C505.941528,515.325256 506.005432,515.670349 505.937286,515.987061 
	C505.527832,517.889526 506.869446,521.142395 503.706940,521.114441 
	C500.413025,521.085388 501.792877,517.826355 501.728638,515.962036 
	C501.540192,510.490570 501.776123,505.004822 501.603821,499.532288 
	C501.500061,496.236633 503.002930,494.977631 506.052032,495.142151 
	C508.368286,495.267181 510.699829,495.357788 512.987976,495.705017 
	C518.407593,496.527466 521.458862,501.468933 518.528625,505.844391 
	C516.317627,509.145844 517.135742,511.447968 518.323975,514.410522 
	C519.149536,516.468933 520.398315,518.572754 519.720398,521.040588 
	C516.651917,522.367249 515.837036,520.278870 515.152405,518.148560 
	C514.494019,516.099854 514.120361,513.937927 512.749451,512.192200 
	C511.354340,510.415802 509.405609,510.026764 507.360199,510.512878 
	C505.299225,511.002686 505.905273,512.784668 505.922485,514.605713 
M511.945465,499.445404 
	C510.016876,499.395081 508.033386,498.820953 505.961121,500.162628 
	C506.400574,502.248444 504.207458,505.240387 507.408600,506.405548 
	C509.521606,507.174652 512.502258,507.542877 514.117065,504.966400 
	C515.394104,502.928802 515.217285,500.865112 511.945465,499.445404 
z"/>
<path fill="#000000" opacity="1.000000" stroke="none" 
	d="
M720.014160,513.858704 
	C719.989014,508.726746 719.960510,504.076721 719.954834,499.426697 
	C719.952515,497.481323 720.287659,495.666840 722.667297,495.365692 
	C726.633789,494.863800 730.618042,494.875519 734.588440,495.325562 
	C735.605591,495.440826 736.548828,495.968719 736.565613,497.182648 
	C736.586609,498.697449 735.479492,499.121277 734.234863,499.180023 
	C732.245178,499.273956 730.251343,499.299683 728.259033,499.308136 
	C726.001587,499.317688 724.380798,499.922852 724.318970,502.630402 
	C724.256775,505.355774 725.810242,505.913177 728.107056,506.054443 
	C730.451416,506.198700 733.146179,505.207794 735.096741,507.829590 
	C733.917969,511.148315 731.011658,510.019043 728.820923,510.083405 
	C725.873413,510.170074 724.129700,510.805328 724.229675,514.294189 
	C724.326416,517.670288 726.303955,517.792786 728.839355,517.995422 
	C731.569336,518.213562 734.822937,516.724915 737.003296,519.818054 
	C734.433960,522.107483 723.060791,522.939514 721.113892,520.998718 
	C719.218384,519.109192 720.281250,516.583191 720.014160,513.858704 
z"/>
<path fill="#000000" opacity="1.000000" stroke="none" 
	d="
M787.892151,517.940125 
	C790.315674,518.209961 792.802002,517.257996 793.762146,520.104248 
	C791.385925,521.958008 780.374756,522.723267 778.209106,521.272522 
	C776.905212,520.398987 776.834900,519.075012 776.827087,517.742310 
	C776.792175,511.757690 776.859619,505.771484 776.743347,499.788727 
	C776.682739,496.667114 778.032715,495.118225 781.121765,495.094604 
	C784.113159,495.071716 787.106750,495.036896 790.095886,495.124878 
	C791.573486,495.168365 793.415100,495.241516 793.273315,497.357574 
	C793.135864,499.407562 791.290527,499.247284 789.821472,499.309082 
	C788.161499,499.378937 786.497253,499.373779 784.835144,499.363312 
	C782.652893,499.349548 781.406921,500.250549 781.325012,502.581757 
	C781.243286,504.908783 782.402466,505.666656 784.580750,506.041595 
	C787.068604,506.469757 791.527954,504.384430 791.529663,508.268585 
	C791.531006,511.399109 787.174500,509.890320 784.748047,510.112793 
	C782.200989,510.346283 781.259827,511.453430 781.269226,513.900024 
	C781.277893,516.171814 781.721558,517.891846 784.457031,517.901306 
	C785.454163,517.904724 786.451233,517.926514 787.892151,517.940125 
z"/>
<path fill="#000000" opacity="1.000000" stroke="none" 
	d="
M648.444580,510.527100 
	C644.132202,509.978882 644.627747,512.764160 644.277405,515.272522 
	C643.980103,517.401245 645.866516,521.331482 642.174683,521.190918 
	C639.015747,521.070679 640.843445,517.373901 640.748779,515.338745 
	C640.502197,510.039520 640.789246,504.717285 640.622559,499.411774 
	C640.527527,496.389282 641.837769,495.066040 644.682434,495.166107 
	C647.329285,495.259186 650.008362,495.327515 652.603943,495.793213 
	C657.313049,496.638123 660.281860,501.669037 657.633240,505.571411 
	C655.181030,509.184418 656.173279,511.892914 657.407959,515.129578 
	C658.103271,516.952332 658.983582,518.783020 658.684326,521.041077 
	C655.394897,522.624939 654.775696,520.041504 653.965271,517.959534 
	C652.842346,515.074646 652.535950,511.655579 648.444580,510.527100 
M644.375122,502.693756 
	C644.333191,504.569611 644.242432,506.512878 646.896851,506.611145 
	C649.175720,506.695526 651.702759,507.230865 653.174194,504.818237 
	C654.215698,503.110626 654.281616,500.798279 652.295288,500.115967 
	C649.587891,499.185883 646.151367,497.503387 644.375122,502.693756 
z"/>
<path fill="#000000" opacity="1.000000" stroke="none" 
	d="
M423.382538,495.293488 
	C424.982086,495.673706 426.196716,496.048157 425.888245,497.597565 
	C425.661346,498.737122 424.604401,499.069489 423.576599,499.122894 
	C421.583832,499.226379 419.585663,499.297516 417.591003,499.274231 
	C415.367432,499.248291 414.166229,500.110565 414.167786,502.485779 
	C414.169281,504.726318 415.127747,505.782196 417.399963,506.007111 
	C419.874084,506.251984 422.755920,505.228790 424.880280,508.006104 
	C423.277618,511.007721 420.509766,509.977417 418.262207,510.090942 
	C415.769043,510.216919 414.138184,510.776306 414.098999,513.746216 
	C414.059967,516.706970 415.218292,518.062012 418.209198,517.961792 
	C420.200897,517.895081 422.201813,518.000000 424.194427,518.106567 
	C425.252625,518.163025 426.167358,518.614197 426.303894,519.814148 
	C426.448334,521.083496 425.533508,521.689087 424.514618,521.766113 
	C420.366852,522.079346 416.200714,522.240540 412.074097,521.577942 
	C409.596283,521.180054 409.738647,519.111084 409.728424,517.281372 
	C409.696808,511.622803 409.901398,505.954712 409.633911,500.308350 
	C409.441437,496.244568 411.330322,494.965332 414.967133,495.092377 
	C417.626526,495.185272 420.289307,495.181854 423.382538,495.293488 
z"/>
<path fill="#000000" opacity="1.000000" stroke="none" 
	d="
M484.586426,521.951416 
	C470.618439,521.925110 472.929047,522.552551 472.712738,510.381042 
	C472.650635,506.886200 472.854187,503.381134 472.663330,499.895630 
	C472.471222,496.387726 474.142944,495.068451 477.388641,495.103119 
	C479.885101,495.129791 482.387665,495.015320 484.876617,495.156433 
	C486.433380,495.244659 488.793396,494.931366 488.803345,497.162048 
	C488.815460,499.890839 486.233765,499.056335 484.577423,499.238708 
	C483.260010,499.383820 481.916687,499.324799 480.585510,499.306702 
	C478.363281,499.276520 477.174835,500.230438 477.157166,502.565979 
	C477.139893,504.848022 478.229828,505.831543 480.457001,506.027527 
	C482.913208,506.243683 485.776581,505.264130 487.839478,508.037842 
	C485.987427,510.871277 483.270386,510.006500 480.988708,510.094727 
	C478.277863,510.199554 477.112762,511.289246 477.087646,514.036499 
	C477.062225,516.821289 478.289093,517.815247 480.967865,517.997131 
	C483.824524,518.190979 487.188782,516.880493 489.482544,519.729858 
	C488.444366,522.247009 486.592621,521.757446 484.586426,521.951416 
z"/>
<path fill="#000000" opacity="1.000000" stroke="none" 
	d="
M610.904907,496.050415 
	C614.674377,494.450073 618.136597,495.202789 621.570007,495.699677 
	C626.016907,496.343231 628.219116,498.986298 628.322571,503.503784 
	C628.426147,508.026825 626.301941,510.699432 621.930359,511.641174 
	C620.960083,511.850220 619.953613,512.155823 618.989563,512.081665 
	C615.256775,511.794586 613.949341,513.506042 614.192688,517.113037 
	C614.300659,518.712891 614.983826,521.323303 612.180908,521.324158 
	C609.550110,521.325012 609.878540,518.853027 609.953247,517.132446 
	C610.254211,510.201477 609.057739,503.225159 610.904907,496.050415 
M623.858765,503.571930 
	C623.456726,499.020538 620.133057,499.106049 616.916931,499.380829 
	C613.293335,499.690399 614.468689,502.637787 614.315186,504.747314 
	C614.193909,506.414062 614.848511,507.762878 616.731873,507.825226 
	C619.665649,507.922363 622.925720,508.504517 623.858765,503.571930 
z"/>
<path fill="#000000" opacity="1.000000" stroke="none" 
	d="
M952.670410,510.974121 
	C952.675720,506.647675 952.661804,502.815826 952.696411,498.984467 
	C952.708313,497.668488 952.553894,496.039185 954.220947,495.664948 
	C958.651306,494.670410 963.135559,494.741425 967.584778,495.608185 
	C968.440918,495.774994 968.963684,496.575592 968.830444,497.509979 
	C968.699219,498.430450 968.008179,499.012878 967.132263,499.069031 
	C964.808899,499.217926 962.477661,499.310883 960.149902,499.305237 
	C957.729309,499.299316 956.410034,500.232788 956.402161,502.826355 
	C956.394653,505.273285 957.796082,505.748291 959.875916,506.076843 
	C962.378845,506.472198 966.831604,504.372955 966.854919,508.253510 
	C966.874268,511.476196 962.501953,509.927917 960.091248,510.092926 
	C957.264099,510.286377 956.384644,511.487457 956.346924,514.154236 
	C956.306030,517.048035 957.680969,517.799805 960.297852,517.988403 
	C963.221985,518.199280 966.606201,516.704407 969.074646,519.696167 
	C966.750549,521.952087 955.477661,523.142578 953.767273,521.077698 
	C951.453247,518.284119 953.108215,514.682678 952.670410,510.974121 
z"/>
<path fill="#000000" opacity="1.000000" stroke="none" 
	d="
M693.927002,517.884033 
	C691.388794,510.497833 688.985840,503.471222 686.589355,496.463531 
	C690.401306,494.373291 691.169067,496.870575 691.948730,499.050690 
	C693.777283,504.163849 695.502014,509.314178 697.441833,514.952576 
	C701.431824,508.549774 701.426392,501.232056 705.750671,495.818451 
	C706.196655,495.260162 707.318176,495.379700 708.331360,496.299042 
	C708.521729,500.155701 706.260864,503.604187 705.167114,507.331726 
	C704.137451,510.840515 702.791992,514.256653 701.583862,517.712952 
	C700.916992,519.620911 700.340698,521.614258 697.760742,521.687073 
	C695.392273,521.754028 694.775085,519.949707 693.927002,517.884033 
z"/>
<path fill="#000000" opacity="1.000000" stroke="none" 
	d="
M765.098572,498.536377 
	C759.019531,498.606293 757.638794,501.787476 758.133179,506.947327 
	C758.495544,510.729248 758.224487,514.574463 758.183838,518.390991 
	C758.169739,519.716064 758.165588,521.270874 756.367371,521.411804 
	C754.371887,521.568298 753.872131,520.105469 753.853455,518.467041 
	C753.800476,513.820984 753.685608,509.171387 753.808838,504.528870 
	C753.897400,501.193512 753.127441,498.985443 749.180786,499.250092 
	C747.833984,499.340393 746.403198,498.995117 746.353455,497.210266 
	C746.319519,495.991028 747.353210,495.448151 748.344910,495.373291 
	C753.472595,494.986389 758.617249,494.738281 763.734314,495.400513 
	C765.178528,495.587433 766.151672,496.548340 765.098572,498.536377 
z"/>
<path fill="#000000" opacity="1.000000" stroke="none" 
	d="
M575.623169,509.812988 
	C573.603088,513.063416 574.674194,516.335205 574.276184,519.424072 
	C574.141479,520.469360 573.875977,521.431091 572.607300,521.520020 
	C571.428040,521.602722 570.440674,520.928467 570.645447,519.821472 
	C572.255493,511.117950 566.219971,505.218842 562.931519,498.311523 
	C562.663391,497.748352 562.662048,497.058136 562.489075,496.187164 
	C565.946899,494.599182 566.838257,497.345123 568.180542,499.214050 
	C569.597107,501.186401 570.040222,503.879456 572.419800,505.116241 
	C576.584229,503.018036 575.979431,495.779663 582.822632,495.394806 
	C581.355103,501.246216 577.905579,505.025696 575.623169,509.812988 
z"/>
<path fill="#000000" opacity="1.000000" stroke="none" 
	d="
M929.579224,514.551025 
	C929.582581,511.448120 929.622742,508.784882 929.577271,506.123077 
	C929.515076,502.478241 930.127869,498.305817 924.165771,499.139862 
	C923.149414,499.282043 922.171570,498.601562 922.039307,497.443420 
	C921.864319,495.911621 923.029785,495.329651 924.226013,495.309479 
	C929.043274,495.228394 933.863892,495.231415 938.680725,495.329834 
	C939.858276,495.353882 941.073181,495.936523 940.958435,497.436371 
	C940.845642,498.911835 939.584900,499.348480 938.405640,499.226074 
	C934.193237,498.788727 933.436279,500.791412 933.735229,504.583435 
	C934.073059,508.868286 933.712402,513.219727 933.473755,517.532104 
	C933.393372,518.986084 934.271729,521.359070 931.694702,521.466858 
	C928.829102,521.586731 929.416565,519.284363 929.504883,517.485962 
	C929.545654,516.655212 929.554565,515.822937 929.579224,514.551025 
z"/>
<path fill="#000000" opacity="1.000000" stroke="none" 
	d="
M826.072998,502.227112 
	C826.075500,505.860748 826.292358,509.045166 826.025330,512.188416 
	C825.659302,516.496704 827.200989,518.315125 831.674316,518.007629 
	C833.836975,517.859009 836.867371,516.842407 837.971130,521.031311 
	C833.034973,522.688049 828.158081,522.269043 823.333191,521.434082 
	C821.470642,521.111816 821.690063,519.165222 821.685486,517.687012 
	C821.667053,511.688202 821.638367,505.688660 821.723694,499.690948 
	C821.745361,498.168213 821.108032,495.840027 823.517517,495.715088 
	C826.161621,495.578003 825.818970,498.011444 826.026794,499.761536 
	C826.105042,500.420013 826.060303,501.093079 826.072998,502.227112 
z"/>
<path fill="#000000" opacity="1.000000" stroke="none" 
	d="
M848.795532,510.952118 
	C848.802063,506.655243 848.771667,502.846436 848.834412,499.039154 
	C848.858826,497.558014 848.874756,495.831451 850.920349,495.678131 
	C853.021973,495.520599 853.278015,497.161560 853.284241,498.702454 
	C853.310913,505.324921 853.285950,511.947723 853.246216,518.570190 
	C853.238037,519.931213 853.077271,521.391418 851.271362,521.439392 
	C849.260742,521.492737 848.886292,519.990540 848.848938,518.394226 
	C848.794861,516.077271 848.810181,513.758667 848.795532,510.952118 
z"/>
<path fill="#000000" opacity="1.000000" stroke="none" 
	d="
M671.720703,520.659302 
	C670.469116,513.085083 671.097473,505.789856 671.063538,498.508942 
	C671.057373,497.175781 671.379517,495.740784 673.188293,495.704926 
	C675.042786,495.668121 675.275757,497.044464 675.279419,498.439331 
	C675.297180,505.244141 675.319885,512.049500 675.250549,518.853699 
	C675.228760,520.996338 674.127258,521.893188 671.720703,520.659302 
z"/>
<path fill="#000000" opacity="1.000000" stroke="none" 
	d="
M910.032288,496.169189 
	C910.320679,503.860809 910.364624,511.278778 910.358643,518.696777 
	C910.357727,519.838196 910.318787,521.201904 908.740845,521.314697 
	C906.848022,521.450012 906.701721,520.002258 906.698669,518.628906 
	C906.683655,511.847443 906.684875,505.065857 906.712402,498.284454 
	C906.720642,496.257507 907.465454,495.043732 910.032288,496.169189 
z"/>
</svg>